# xmcd
#
# Track frame offsets: 
#        150
#        12678
#        24060
#        36071
#        48970
#        62676
#        72971
#        85578
#        95912
#        107508
#
# Disc length: 1548 seconds
#
# Revision: 2
# Processed by: cddbd v1.5.2PL0 Copyright (c) Steve Scherf et al.
# Submitted via: ExactAudioCopyFreeDBPlugin 1.0
#
DISCID=76060a0a
DTITLE=Billie Jo Spears - Miss Sincerity
DYEAR=1969
DGENRE=Country
TTITLE0=Stepchild
TTITLE1=I'll Shaare My World With You
TTITLE2=Before Your Time
TTITLE3=I Started Lovi'n You Again
TTITLE4=Games People Play
TTITLE5=Singing My Song
TTITLE6=Softly And Tenderly
TTITLE7=A Thing Of Pleasure
TTITLE8=You'll Never Love Me Now
TTITLE9=Pittsburg General
EXTD=
EXTT0=
EXTT1=
EXTT2=
EXTT3=
EXTT4=
EXTT5=
EXTT6=
EXTT7=
EXTT8=
EXTT9=
PLAYORDER=
